<svg preserveAspectRatio="none" width="100%" height="100%" overflow="visible" style="display: block;" viewBox="0 0 17.0054 17.0054" fill="none" xmlns="http://www.w3.org/2000/svg">
<path id="Vector" d="M3.40271 12.6779C4.11104 12.1429 4.89938 11.7225 5.76771 11.4167C6.63604 11.1108 7.54806 10.9579 8.50375 10.9579C9.45945 10.9579 10.3736 11.1133 11.2463 11.4242C12.1189 11.735 12.9044 12.1546 13.6027 12.6829C14.079 12.1101 14.4492 11.4718 14.7133 10.7679C14.9775 10.0639 15.1096 9.30882 15.1096 8.50271C15.1096 6.67535 14.4653 5.11736 13.1767 3.82875C11.8881 2.54014 10.3301 1.89583 8.50271 1.89583C6.67535 1.89583 5.11736 2.54014 3.82875 3.82875C2.54014 5.11736 1.89583 6.67535 1.89583 8.50271C1.89583 9.30549 2.02708 10.0589 2.28958 10.7629C2.55208 11.4668 2.92312 12.1051 3.40271 12.6779ZM8.50271 9.38083C7.66993 9.38083 6.96903 9.09708 6.4 8.52958C5.83083 7.96208 5.54625 7.26201 5.54625 6.42937C5.54625 5.5966 5.83083 4.89562 6.4 4.32646C6.96903 3.75743 7.66993 3.47292 8.50271 3.47292C9.33549 3.47292 10.0364 3.75743 10.6054 4.32646C11.1746 4.89562 11.4592 5.5966 11.4592 6.42937C11.4592 7.26201 11.1746 7.96208 10.6054 8.52958C10.0364 9.09708 9.33549 9.38083 8.50271 9.38083ZM8.50229 17.0054C7.3266 17.0054 6.22181 16.7825 5.18792 16.3367C4.15417 15.8908 3.25396 15.2847 2.48729 14.5181C1.72076 13.7515 1.11458 12.8511 0.66875 11.8171C0.222917 10.7829 0 9.67799 0 8.50229C0 7.3266 0.222917 6.22181 0.66875 5.18792C1.11458 4.15417 1.72076 3.25396 2.48729 2.48729C3.25396 1.72076 4.15431 1.11458 5.18833 0.66875C6.2225 0.222916 7.32743 0 8.50313 0C9.67882 0 10.7836 0.222916 11.8175 0.66875C12.8513 1.11458 13.7515 1.72076 14.5181 2.48729C15.2847 3.25396 15.8908 4.15431 16.3367 5.18833C16.7825 6.2225 17.0054 7.32743 17.0054 8.50313C17.0054 9.67882 16.7825 10.7836 16.3367 11.8175C15.8908 12.8513 15.2847 13.7515 14.5181 14.5181C13.7515 15.2847 12.8511 15.8908 11.8171 16.3367C10.7829 16.7825 9.67799 17.0054 8.50229 17.0054ZM8.50271 15.1096C9.22215 15.1096 9.89833 15.0061 10.5313 14.7992C11.164 14.5922 11.7513 14.294 12.2929 13.9044C11.7447 13.5116 11.1583 13.2126 10.5338 13.0073C9.90917 12.8019 9.23215 12.6992 8.50271 12.6992C7.77326 12.6992 7.09708 12.8019 6.47417 13.0073C5.85125 13.2126 5.26563 13.5116 4.71729 13.9044C5.25896 14.294 5.84542 14.5922 6.47667 14.7992C7.10792 15.0061 7.78326 15.1096 8.50271 15.1096ZM8.50271 7.63958C8.85049 7.63958 9.13917 7.52479 9.36875 7.29521C9.5982 7.06576 9.71292 6.77715 9.71292 6.42937C9.71292 6.08146 9.5982 5.79194 9.36875 5.56083C9.13917 5.32972 8.85049 5.21417 8.50271 5.21417C8.15493 5.21417 7.86625 5.32972 7.63667 5.56083C7.40722 5.79194 7.2925 6.08146 7.2925 6.42937C7.2925 6.77715 7.40722 7.06576 7.63667 7.29521C7.86625 7.52479 8.15493 7.63958 8.50271 7.63958Z" fill="var(--fill-0, white)"/>
</svg>
