<svg preserveAspectRatio="none" width="100%" height="100%" overflow="visible" style="display: block;" viewBox="0 0 69.8182 30.5484" fill="none" xmlns="http://www.w3.org/2000/svg">
<g id="AXS">
<path d="M32.3473 0.319585C32.8524 0.319585 33.4504 0.689198 33.6789 1.14191L48.2331 29.8887C48.5697 30.5536 48.0151 30.5484 47.8453 30.5484H46.5716C45.9846 30.5484 45.4634 29.9059 45.4503 29.8896L35.8001 18.2173L30.213 24.852C30.213 24.852 29.9725 25.1555 29.5607 25.1557C29.5171 25.1557 26.6164 25.1557 26.5994 25.1557C26.0963 25.1557 25.8687 24.7838 26.0957 24.3305L31.6632 13.217L21.5748 1.0223C21.248 0.634106 21.3938 0.319757 21.8963 0.319585H32.3473Z" fill="var(--fill-0, #0054A1)"/>
<path d="M60.5754 0.0130824C64.8723 0.0131513 69.136 1.91845 69.136 1.91845C69.5316 2.09491 69.5343 2.47896 69.3921 2.65106L67.0653 5.46285C66.6919 5.91398 66.4009 6.17357 65.657 5.85626C64.9129 5.53868 62.3727 4.76948 60.3895 4.76948C58.7804 4.76949 56.4022 5.07095 56.4021 7.02714C56.4021 8.75451 59.3188 9.49412 59.5718 9.56326C60.8374 9.90903 62.3409 10.255 63.6078 10.5921C68.7087 11.9496 69.8181 15.1033 69.8182 18.0968C69.8182 24.3021 64.7934 26.1788 60.0372 26.1789C55.8023 26.1789 50.887 24.1319 49.7338 23.4531C49.129 23.0969 49.3924 22.7544 49.7581 22.3196L52.1746 19.4461C52.5308 19.0226 52.6092 19.027 53.2035 19.3237C55.4989 20.4696 57.02 21.0646 59.3737 21.0646C62.3183 21.0646 63.549 20.1189 63.7676 19.0303C63.9535 18.1028 63.7012 17.1292 62.8677 16.5138C61.7196 15.6662 57.6004 14.9401 56.1564 14.5019C54.275 13.9318 50.4021 12.6729 50.402 7.45419C50.402 3.5723 52.9271 1.7027 54.7173 0.938198C56.5264 0.166585 58.3658 0.0130824 60.5754 0.0130824Z" fill="var(--fill-0, #0054A1)"/>
<path fill-rule="evenodd" clip-rule="evenodd" d="M11.3116 0C15.2696 5.5431e-05 18.0502 0.81193 19.6517 2.43333C21.2555 4.05721 22.056 6.95932 22.0561 11.1406V24.6744C22.0519 24.9575 21.8317 25.1557 21.4645 25.1557H19.3611C19.0513 25.1557 18.8383 24.9847 18.7518 24.8996C18.7246 24.8729 18.7098 24.8543 18.7079 24.852L16.5418 22.285C16.5323 22.2703 16.207 21.776 15.7242 22.3878C13.797 24.8296 11.5209 25.791 8.7886 25.7911C6.07257 25.7911 3.86118 25.0521 2.31653 23.5755C0.771934 22.0989 0 20.0378 0 17.3903C5.85769e-05 14.5253 0.920935 12.4087 2.76226 11.0416C4.60329 9.67516 7.4542 8.99137 11.3116 8.99137H14.6841C15.2578 8.99123 15.7644 8.72544 15.7157 8.23259C15.643 7.49554 15.624 6.27151 14.6065 5.56004C13.8545 5.03417 12.7612 4.75926 11.3116 4.75921C7.90814 4.75921 5.56489 5.76658 5.55163 5.77123C5.07196 5.93986 4.77515 5.95501 4.26114 5.3339L1.93527 2.52211C1.793 2.35005 1.76614 1.96847 2.23336 1.768C2.96771 1.4529 6.31349 0 11.3116 0ZM14.2253 13.6188C13.6519 13.6188 12.7137 13.6542 12.1414 13.6983C12.1414 13.6983 9.14278 13.9269 8.20082 14.5402C7.25791 15.1544 6.78698 16.207 6.78698 17.6987C6.78707 18.81 7.11382 19.6936 7.76536 20.3516C8.41776 21.0093 9.30234 21.3384 10.4192 21.3384C12.1022 21.3383 13.4075 20.6985 14.3346 19.4199C15.2618 18.1408 15.727 16.2039 15.727 14.2543C15.7267 13.7549 15.2576 13.6189 14.6841 13.6188H14.2253Z" fill="var(--fill-0, #0054A1)"/>
<path d="M50.4141 0.319585C50.9172 0.319585 51.0625 0.634072 50.7365 1.0223L41.3246 12.2106L37.9783 2.62023L38.8165 0.936329C38.9879 0.597018 39.4357 0.319766 39.8136 0.319585H50.4141Z" fill="var(--fill-0, #0054A1)"/>
</g>
</svg>
